<svg aria-hidden="true" style="width:0;height:0;position:absolute;overflow:hidden" xmlns="http://www.w3.org/2000/svg"><defs><symbol id="instagram" viewBox="0 0 33 32"><path d="M23.454 0H8.778C4.002 0 .116 3.886.116 8.662v14.676C.116 28.114 4.002 32 8.778 32h14.676c4.776 0 8.662-3.886 8.662-8.662V8.662C32.116 3.886 28.23 0 23.454 0zm-7.337 24.75c-4.825 0-8.75-3.925-8.75-8.75s3.925-8.75 8.75-8.75 8.75 3.925 8.75 8.75-3.925 8.75-8.75 8.75zm8.958-15.436c-1.426 0-2.585-1.16-2.585-2.585s1.16-2.586 2.585-2.586c1.426 0 2.586 1.16 2.586 2.586s-1.16 2.585-2.586 2.585z"/><path d="M16.117 9.126c-3.79 0-6.874 3.083-6.874 6.874s3.084 6.874 6.874 6.874c3.79 0 6.874-3.084 6.874-6.874s-3.083-6.874-6.874-6.874zM25.075 6.019a.71.71 0 1 0 .001 1.42.71.71 0 0 0-.001-1.42z"/></symbol><symbol id="facebook" viewBox="0 0 32 32"><path d="M11.743 6.199v4.406H8.52v5.387h3.223v16.009h6.62V15.992h4.442s.416-2.583.618-5.408h-5.035V6.9c0-.551.722-1.291 1.435-1.291h3.607V0h-4.904c-6.947 0-6.783 5.392-6.783 6.197z"/></symbol><symbol id="arrow-up" viewBox="0 0 32 32"><path d="M16 4 6 14l1.41 1.41L15 7.83V28h2V7.83l7.59 7.58L26 14 16 4z"/></symbol><symbol id="arrow-button" viewBox="0 0 32 32"><path d="M11.453 22.12 17.56 16l-6.107-6.12L13.333 8l8 8-8 8-1.88-1.88z"/></symbol><symbol id="icon-close" viewBox="0 0 32 32"><path d="m16 14.115 6.6-6.6L24.485 9.4l-6.6 6.6 6.6 6.6-1.885 1.885-6.6-6.6-6.6 6.6L7.515 22.6l6.6-6.6-6.6-6.6L9.4 7.515l6.6 6.6z"/></symbol><symbol id="icon-menu" viewBox="0 0 32 32"><path d="M4 24h24v-2.667H4V24zm0-6.667h24v-2.667H4v2.667zM4 8v2.667h24V8H4z"/></symbol></defs></svg>